HIERARCHY
ROOT Hips
{
	OFFSET -0.001795 -0.223333 0.028219
	CHANNELS 6 Xposition Yposition Zposition Zrotation Yrotation Xrotation 
	JOINT LeftUpLeg
	{
		OFFSET 0.069520 -0.091406 -0.006815
		CHANNELS 3 Zrotation Yrotation Xrotation
		JOINT LeftLeg
		{
			OFFSET 0.034277 -0.375199 -0.004496
			CHANNELS 3 Zrotation Yrotation Xrotation
			JOINT LeftFoot
			{
				OFFSET -0.013596 -0.397961 -0.043693
				CHANNELS 3 Zrotation Yrotation Xrotation
				JOINT LeftToe
				{
					OFFSET 0.026358 -0.055791 0.119288
					CHANNELS 3 Zrotation Yrotation Xrotation
					End Site
					{
						OFFSET 0.000000 0.000000 0.000000
					}
				}
			}
		}
	}
	JOINT RightUpLeg
	{
		OFFSET -0.067670 -0.090522 -0.004320
		CHANNELS 3 Zrotation Yrotation Xrotation
		JOINT RightLeg
		{
			OFFSET -0.038290 -0.382569 -0.008850
			CHANNELS 3 Zrotation Yrotation Xrotation
			JOINT RightFoot
			{
				OFFSET 0.015774 -0.398415 -0.042312
				CHANNELS 3 Zrotation Yrotation Xrotation
				JOINT RightToe
				{
					OFFSET -0.025372 -0.048144 0.123348
					CHANNELS 3 Zrotation Yrotation Xrotation
					End Site
					{
						OFFSET 0.000000 0.000000 0.000000
					}
				}
			}
		}
	}
	JOINT Spine
	{
		OFFSET -0.002533 0.108963 -0.026696
		CHANNELS 3 Zrotation Yrotation Xrotation
		JOINT Spine1
		{
			OFFSET 0.005487 0.135180 0.001092
			CHANNELS 3 Zrotation Yrotation Xrotation
			JOINT Spine2
			{
				OFFSET 0.001457 0.052922 0.025425
				CHANNELS 3 Zrotation Yrotation Xrotation
				JOINT Neck
				{
					OFFSET -0.002778 0.213870 -0.042857
					CHANNELS 3 Zrotation Yrotation Xrotation
					JOINT Head
					{
						OFFSET 0.005152 0.064970 0.051349
						CHANNELS 3 Zrotation Yrotation Xrotation
						End Site
						{
							OFFSET 0.000000 0.000000 0.000000
						}
					}
				}
				JOINT LeftShoulder
				{
					OFFSET 0.078845 0.121749 -0.034090
					CHANNELS 3 Zrotation Yrotation Xrotation
					JOINT LeftArm
					{
						OFFSET 0.090977 0.030469 -0.008868
						CHANNELS 3 Zrotation Yrotation Xrotation
						JOINT LeftForeArm
						{
							OFFSET 0.259612 -0.012772 -0.027456
							CHANNELS 3 Zrotation Yrotation Xrotation
							JOINT LeftHand
							{
								OFFSET 0.249234 0.008986 -0.001171
								CHANNELS 3 Zrotation Yrotation Xrotation
								End Site
								{
									OFFSET 0.000000 0.000000 0.000000
								}
							}
						}
					}
				}
				JOINT RightShoulder
				{
					OFFSET -0.081759 0.118833 -0.038615
					CHANNELS 3 Zrotation Yrotation Xrotation
					JOINT RightArm
					{
						OFFSET -0.096012 0.032551 -0.009143
						CHANNELS 3 Zrotation Yrotation Xrotation
						JOINT RightForeArm
						{
							OFFSET -0.253742 -0.013329 -0.021401
							CHANNELS 3 Zrotation Yrotation Xrotation
							JOINT RightHand
							{
								OFFSET -0.255298 0.007772 -0.005559
								CHANNELS 3 Zrotation Yrotation Xrotation
								End Site
								{
									OFFSET 0.000000 0.000000 0.000000
								}
							}
						}
					}
				}
			}
		}
	}
}
MOTION
Frames: 15
Frame Time: 0.050000
-0.000171 0.953872 -0.023559 -1.753096 3.246895 1.089665 6.554295 -0.015483 4.647432 -4.151537 0.396123 -6.529922 0.948091 7.234806 14.380422 0.000000 0.000000 0.000000 -4.640708 -0.230641 4.927717 3.035636 -0.413536 -5.171634 -3.256924 -11.662883 17.712350 0.000000 0.000000 0.000000 -4.455685 0.045082 -3.253262 6.458458 -1.322610 -18.936002 1.863637 4.020738 30.682673 3.268639 0.356371 -22.801350 0.000000 0.000000 0.000000 -22.477068 5.719708 -6.428910 -53.022967 -7.724820 -5.352386 -10.741707 -22.646105 3.098904 0.000000 0.000000 0.000000 10.971030 8.958962 4.584244 41.683027 24.286729 1.519077 143.444674 58.811566 132.507157 0.000000 0.000000 0.000000 
0.000013 0.954352 -0.024264 -1.716412 3.178812 1.078365 6.380449 -0.002502 4.634523 -3.840297 0.383504 -6.641154 0.695426 6.891049 14.552534 0.000000 0.000000 0.000000 -4.563209 -0.238603 4.993047 3.010687 -0.412043 -5.219784 -3.316177 -11.765355 17.656621 0.000000 0.000000 0.000000 -4.588537 0.042403 -3.346233 6.442989 -1.333790 -18.765578 1.999566 4.648947 30.731548 3.557282 0.272298 -22.763239 0.000000 0.000000 0.000000 -22.318067 5.296811 -6.319598 -52.948761 -7.952079 -5.221343 -10.626872 -23.092023 3.107270 0.000000 0.000000 0.000000 10.610556 9.757591 4.982093 41.131835 25.221729 1.809150 144.546243 63.081009 138.139869 0.000000 0.000000 0.000000 
0.000083 0.954503 -0.024817 -1.768968 3.285527 1.083842 6.393667 -0.001707 4.778916 -3.681487 0.375237 -6.823939 0.477438 6.583225 14.598465 0.000000 0.000000 0.000000 -4.512429 -0.253358 5.141315 3.038065 -0.418385 -5.458798 -3.385293 -11.874017 17.707580 0.000000 0.000000 0.000000 -4.631053 0.041372 -3.292956 6.251259 -1.279921 -18.702233 2.254047 5.220605 30.670928 3.830951 0.197530 -22.641952 0.000000 0.000000 0.000000 -21.854314 4.986018 -6.226462 -53.121705 -8.089776 -5.147847 -10.604500 -23.438718 3.113015 0.000000 0.000000 0.000000 10.108573 9.962115 5.082291 41.031350 26.649242 2.354393 146.137375 67.225194 143.900095 0.000000 0.000000 0.000000 
0.000017 0.954777 -0.025053 -1.843116 3.507425 1.141123 6.411608 -0.005158 4.917905 -3.398698 0.360995 -7.176222 -0.025815 5.911371 14.835409 0.000000 0.000000 0.000000 -4.249602 -0.279459 5.238990 2.956123 -0.418730 -5.705391 -3.545628 -12.135280 17.893945 0.000000 0.000000 0.000000 -4.629210 0.041737 -3.237531 6.056116 -1.224629 -18.618629 2.609798 5.962332 30.607755 4.297327 0.054081 -22.643813 0.000000 0.000000 0.000000 -21.659273 4.538957 -6.193150 -52.903125 -8.297219 -4.983131 -10.777024 -23.610641 3.116138 0.000000 0.000000 0.000000 9.449561 10.376726 5.273852 40.804978 27.907679 2.847813 151.024067 70.772533 153.377497 0.000000 0.000000 0.000000 
-0.000162 0.954606 -0.024861 -1.849303 3.654233 1.092718 6.444238 -0.009365 4.935125 -3.315479 0.356385 -7.179855 -0.176693 5.625934 14.604904 0.000000 0.000000 0.000000 -4.128624 -0.308428 5.498489 2.901936 -0.419802 -5.903701 -3.613751 -12.249508 18.043661 0.000000 0.000000 0.000000 -4.671531 0.039743 -3.112643 5.918320 -1.185602 -18.557519 3.070518 6.644743 30.535037 4.384644 0.100883 -22.363508 0.000000 0.000000 0.000000 -21.484087 4.324283 -6.262621 -52.933977 -8.277668 -4.943536 -11.105821 -23.719828 3.150802 0.000000 0.000000 0.000000 8.755720 10.785268 5.423735 40.251654 29.406117 3.377635 158.560982 73.925411 165.229903 0.000000 0.000000 0.000000 
-0.000403 0.954607 -0.024264 -1.844490 3.720454 1.178138 6.338762 -0.000713 5.078084 -2.963769 0.344131 -7.619509 -0.839433 4.745928 15.000624 0.000000 0.000000 0.000000 -4.124558 -0.317205 5.612866 3.037178 -0.431887 -6.078199 -3.989715 -12.887831 18.228776 0.000000 0.000000 0.000000 -4.890401 0.035816 -3.258521 5.731381 -1.142731 -18.364901 3.330281 7.394932 30.191341 4.895766 -0.060514 -22.559782 0.000000 0.000000 0.000000 -20.782526 4.327197 -6.329703 -53.358373 -8.394128 -4.881198 -11.279556 -23.502074 3.102424 0.000000 0.000000 0.000000 8.108609 11.436775 5.668962 39.944157 31.331823 4.148389 172.643758 77.307983 -175.773647 0.000000 0.000000 0.000000 
-0.000714 0.954464 -0.023557 -1.830406 4.157210 1.166247 6.218730 0.000222 5.136421 -2.577027 0.327391 -7.666024 -1.216091 3.982802 14.317046 0.000000 0.000000 0.000000 -4.112614 -0.350309 5.958260 3.230642 -0.453242 -6.448269 -4.416565 -13.559596 18.463964 0.000000 0.000000 0.000000 -5.056782 0.028865 -3.398402 5.521043 -1.071786 -18.352438 3.700265 7.744131 30.091831 4.962595 -0.030325 -22.325837 0.000000 0.000000 0.000000 -20.367334 4.385172 -6.428423 -53.840540 -8.166036 -5.014808 -11.307137 -23.186479 3.029757 0.000000 0.000000 0.000000 7.094770 12.180143 5.840103 38.855140 33.869436 4.985660 -154.781903 80.032222 -137.350464 0.000000 0.000000 0.000000 
-0.001099 0.955070 -0.023160 -1.714697 3.702425 1.234129 5.907885 0.040320 5.404756 -2.296607 0.327651 -8.236906 -1.528302 3.560358 14.662220 0.000000 0.000000 0.000000 -4.525438 -0.317570 6.020202 3.710853 -0.478625 -6.613450 -4.430417 -13.643239 18.449094 0.000000 0.000000 0.000000 -5.164763 0.028722 -3.591152 5.576569 -1.105513 -18.245330 3.759749 9.020778 29.796198 5.788319 -0.334155 -22.663407 0.000000 0.000000 0.000000 -20.220403 4.019510 -6.478045 -53.907868 -7.658426 -5.155214 -10.957559 -22.851719 2.852914 0.000000 0.000000 0.000000 5.947877 14.196527 6.509473 36.343170 37.746010 5.986147 -100.618378 76.875206 -76.068961 0.000000 0.000000 0.000000 
-0.001742 0.955540 -0.023236 -1.542345 3.656515 1.174349 5.675470 0.056575 5.305358 -2.005005 0.320094 -8.219663 -1.724876 3.071338 14.182471 0.000000 0.000000 0.000000 -4.662301 -0.307101 6.013886 4.080753 -0.498232 -6.462865 -4.910457 -14.424198 18.284756 0.000000 0.000000 0.000000 -5.283069 0.025282 -3.555275 5.040800 -0.961640 -18.011969 4.184157 9.906069 29.148974 6.290811 -0.560989 -22.286925 0.000000 0.000000 0.000000 -19.955062 3.557474 -6.402081 -54.281801 -7.538429 -5.140392 -10.590106 -22.216377 2.647348 0.000000 0.000000 0.000000 3.849724 16.238343 6.876159 32.260228 43.607473 7.111728 -71.170090 65.860036 -40.700922 0.000000 0.000000 0.000000 
-0.002803 0.956697 -0.023950 -1.406053 3.155895 1.139709 5.373142 0.104325 5.712183 -1.686124 0.321886 -8.682377 -2.145099 2.390691 14.310305 0.000000 0.000000 0.000000 -4.716241 -0.307687 6.216917 3.952056 -0.488526 -6.887980 -4.724827 -14.194446 18.355870 0.000000 0.000000 0.000000 -4.856486 0.039630 -2.980216 4.775541 -0.864049 -18.415904 4.117136 11.858044 28.664405 7.845366 -1.186131 -22.792848 0.000000 0.000000 0.000000 -20.286275 3.008725 -6.684409 -53.741672 -6.863288 -5.179752 -10.867730 -21.704601 2.539281 0.000000 0.000000 0.000000 0.950929 19.111426 7.264833 23.861343 49.480617 6.395108 -55.374923 48.240417 -20.490923 0.000000 0.000000 0.000000 
-0.004266 0.957500 -0.025113 -1.159513 3.365452 1.077375 5.127305 0.101707 5.245746 -1.760353 0.316223 -8.241341 -1.861552 2.842871 14.247131 0.000000 0.000000 0.000000 -4.764170 -0.307554 6.204278 4.235064 -0.504500 -6.593793 -5.598084 -15.587022 18.281320 0.000000 0.000000 0.000000 -5.003202 0.037798 -2.360183 4.409811 -0.737141 -18.628602 4.055316 13.214336 27.912180 9.316985 -1.781757 -23.283648 0.000000 0.000000 0.000000 -19.831017 2.434664 -6.674081 -54.266511 -6.891958 -5.092798 -9.695901 -20.853102 2.150256 0.000000 0.000000 0.000000 -3.293498 21.214459 6.781122 14.459188 55.899240 4.581101 -44.929715 29.273658 -8.952966 0.000000 0.000000 0.000000 
-0.006018 0.958570 -0.026459 -1.010719 3.316738 1.059003 4.781474 0.138651 5.506539 -1.278014 0.311367 -8.739814 -2.605772 1.745782 14.461121 0.000000 0.000000 0.000000 -4.897448 -0.323114 6.606787 4.272032 -0.510601 -7.438137 -5.823753 -15.985787 18.695509 0.000000 0.000000 0.000000 -4.637490 0.044431 -1.064717 4.073067 -0.584478 -19.541001 3.829357 15.243969 27.368686 10.842905 -2.237868 -24.109635 0.000000 0.000000 0.000000 -19.913621 1.712466 -6.922920 -53.714589 -6.539852 -4.959105 -9.744574 -20.037624 1.970637 0.000000 0.000000 0.000000 -7.248923 23.023965 6.111844 2.244776 58.837185 0.021842 -35.838203 12.635273 -2.438058 0.000000 0.000000 0.000000 
-0.007624 0.959284 -0.027686 -0.959176 4.183385 1.359920 4.855611 0.089745 4.915139 -1.514809 0.308451 -8.675229 -2.367188 2.245483 14.479800 0.000000 0.000000 0.000000 -4.740100 -0.333064 6.379594 4.382863 -0.526267 -7.220787 -6.418743 -16.845125 18.972431 0.000000 0.000000 0.000000 -4.380713 0.045690 -0.486190 3.187908 -0.294843 -19.833195 3.626313 16.135518 26.733899 12.204112 -2.794423 -24.381879 0.000000 0.000000 0.000000 -19.386420 1.080283 -6.849177 -53.557747 -6.462203 -4.853322 -9.306770 -20.186714 1.824822 0.000000 0.000000 0.000000 -11.530498 23.436161 4.803021 -7.781744 59.440200 -4.004076 -27.506449 2.149374 0.250973 0.000000 0.000000 0.000000 
-0.008876 0.959771 -0.028640 -0.855883 4.651312 1.426742 4.776787 0.083422 4.832233 -1.447530 0.302707 -8.666665 -3.095377 1.063584 14.244898 0.000000 0.000000 0.000000 -4.546439 -0.367284 6.558445 4.252382 -0.527724 -7.595895 -6.613183 -17.126527 20.033105 0.000000 0.000000 0.000000 -4.075342 0.041005 0.256787 2.738925 -0.133523 -20.358372 3.402504 17.665502 26.242228 12.810875 -2.794661 -24.677053 0.000000 0.000000 0.000000 -18.850595 0.686821 -6.994318 -53.367927 -6.036631 -4.899589 -10.766330 -20.487884 1.989143 0.000000 0.000000 0.000000 -14.003094 23.451503 3.935376 -13.670420 57.882478 -5.914727 -20.147993 -2.248599 0.771818 0.000000 0.000000 0.000000 
-0.009653 0.959664 -0.029309 -0.797084 5.162407 1.625812 4.759122 0.070593 4.748631 -1.295904 0.297599 -8.854480 -3.415898 0.543032 14.060301 0.000000 0.000000 0.000000 -4.643965 -0.369183 6.579502 4.455569 -0.545654 -7.768173 -6.690344 -17.186479 20.321639 0.000000 0.000000 0.000000 -3.974122 0.041212 0.289187 2.301941 0.010714 -20.627683 3.682073 18.623531 26.187174 13.719395 -3.022270 -25.244641 0.000000 0.000000 0.000000 -18.944614 0.157153 -7.153691 -53.044445 -5.322931 -5.023827 -10.801660 -20.664558 1.935494 0.000000 0.000000 0.000000 -15.142107 23.400329 3.490776 -15.817296 56.697816 -6.294353 -15.152435 -5.147350 0.850822 0.000000 0.000000 0.000000 
